<svg xmlns="http://www.w3.org/2000/svg" viewBox="0 0 1200 400" width="1200" height="400">
  <defs>
    <linearGradient id="bg" x1="0%" y1="0%" x2="100%" y2="100%">
      <stop offset="0%" style="stop-color:#0a0a0a"/>
      <stop offset="50%" style="stop-color:#111111"/>
      <stop offset="100%" style="stop-color:#0d0d0d"/>
    </linearGradient>
    <radialGradient id="glow1" cx="18%" cy="55%" r="30%">
      <stop offset="0%" style="stop-color:#4A90D9;stop-opacity:0.15"/>
      <stop offset="100%" style="stop-color:#4A90D9;stop-opacity:0"/>
    </radialGradient>
    <radialGradient id="glow2" cx="30%" cy="30%" r="20%">
      <stop offset="0%" style="stop-color:#4A90D9;stop-opacity:0.08"/>
      <stop offset="100%" style="stop-color:#4A90D9;stop-opacity:0"/>
    </radialGradient>
  </defs>
  <rect width="1200" height="400" fill="url(#bg)"/>
  <rect width="1200" height="400" fill="url(#glow1)"/>
  <rect width="1200" height="400" fill="url(#glow2)"/>

  <circle cx="338" cy="180" r="2.4" fill="white" opacity="0.3"/>
  <circle cx="457" cy="158" r="3.3" fill="white" opacity="0.5"/>
  <circle cx="296" cy="27" r="2.9" fill="white" opacity="0.5"/>
  <circle cx="336" cy="317" r="2.9" fill="white" opacity="0.7"/>
  <circle cx="486" cy="208" r="2.1" fill="white" opacity="0.8"/>
  <circle cx="200" cy="324" r="2.9" fill="white" opacity="0.6"/>
  <circle cx="361" cy="87" r="1.8" fill="white" opacity="0.6"/>
  <circle cx="72" cy="166" r="2.3" fill="white" opacity="0.8"/>
  <circle cx="163" cy="174" r="1.8" fill="white" opacity="0.5"/>
  <circle cx="497" cy="367" r="2.8" fill="white" opacity="0.6"/>
  <circle cx="330" cy="75" r="2.6" fill="white" opacity="0.5"/>
  <circle cx="273" cy="357" r="3.0" fill="white" opacity="0.6"/>
  <circle cx="341" cy="151" r="2.8" fill="white" opacity="0.4"/>
  <circle cx="114" cy="138" r="2.8" fill="white" opacity="0.6"/>
  <circle cx="272" cy="211" r="2.0" fill="white" opacity="0.7"/>
  <circle cx="39" cy="255" r="2.9" fill="white" opacity="0.5"/>
  <circle cx="105" cy="56" r="1.8" fill="white" opacity="0.8"/>
  <circle cx="156" cy="178" r="2.7" fill="white" opacity="0.7"/>
  <circle cx="30" cy="213" r="2.2" fill="white" opacity="0.5"/>
  <circle cx="38" cy="351" r="1.8" fill="white" opacity="0.7"/>
  <circle cx="463" cy="259" r="3.1" fill="white" opacity="0.5"/>
  <circle cx="374" cy="275" r="2.2" fill="white" opacity="0.6"/>
  <circle cx="168" cy="166" r="3.2" fill="white" opacity="0.5"/>
  <circle cx="437" cy="143" r="3.2" fill="white" opacity="0.5"/>
  <circle cx="443" cy="231" r="3.2" fill="white" opacity="0.8"/>
  <circle cx="330" cy="173" r="1.7" fill="white" opacity="0.5"/>
  <circle cx="120" cy="102" r="1.8" fill="white" opacity="0.7"/>
  <circle cx="326" cy="284" r="2.3" fill="white" opacity="0.5"/>
  <circle cx="478" cy="253" r="2.2" fill="white" opacity="0.5"/>
  <circle cx="333" cy="346" r="1.7" fill="white" opacity="0.5"/>
  <circle cx="366" cy="140" r="2.2" fill="white" opacity="0.6"/>
  <circle cx="250" cy="135" r="1.7" fill="white" opacity="0.7"/>
  <circle cx="477" cy="275" r="2.9" fill="white" opacity="0.3"/>
  <circle cx="403" cy="298" r="1.8" fill="white" opacity="0.6"/>
  <circle cx="247" cy="204" r="2.7" fill="white" opacity="0.5"/>
  <circle cx="109" cy="161" r="1.9" fill="white" opacity="0.5"/>
  <circle cx="103" cy="59" r="3.2" fill="white" opacity="0.7"/>
  <circle cx="354" cy="212" r="2.5" fill="white" opacity="0.7"/>
  <circle cx="214" cy="172" r="2.9" fill="white" opacity="0.7"/>
  <circle cx="387" cy="71" r="2.4" fill="white" opacity="0.5"/>
  <circle cx="96" cy="81" r="3.3" fill="white" opacity="0.7"/>
  <circle cx="330" cy="180" r="3.0" fill="white" opacity="0.4"/>
  <circle cx="363" cy="120" r="2.5" fill="white" opacity="0.7"/>
  <circle cx="409" cy="323" r="3.3" fill="white" opacity="0.6"/>
  <circle cx="203" cy="135" r="3.2" fill="white" opacity="0.6"/>
  <circle cx="459" cy="307" r="1.6" fill="white" opacity="0.7"/>
  <circle cx="411" cy="52" r="2.0" fill="white" opacity="0.3"/>
  <circle cx="94" cy="34" r="3.3" fill="white" opacity="0.8"/>
  <circle cx="457" cy="184" r="2.7" fill="white" opacity="0.7"/>
  <circle cx="411" cy="176" r="2.3" fill="white" opacity="0.7"/>
  <circle cx="442" cy="48" r="3.1" fill="white" opacity="0.6"/>
  <circle cx="297" cy="86" r="3.1" fill="white" opacity="0.5"/>
  <circle cx="206" cy="94" r="1.5" fill="white" opacity="0.4"/>
  <circle cx="208" cy="277" r="2.0" fill="white" opacity="0.5"/>
  <circle cx="58" cy="226" r="2.3" fill="white" opacity="0.3"/>

  <line x1="222" y1="276" x2="265" y2="255" stroke="white" stroke-width="0.5" opacity="0.12"/>
  <line x1="100" y1="241" x2="180" y2="199" stroke="white" stroke-width="0.5" opacity="0.12"/>
  <line x1="118" y1="87" x2="181" y2="53" stroke="white" stroke-width="0.5" opacity="0.12"/>
  <line x1="305" y1="63" x2="347" y2="65" stroke="white" stroke-width="0.5" opacity="0.12"/>
  <line x1="191" y1="212" x2="277" y2="206" stroke="white" stroke-width="0.5" opacity="0.12"/>
  <line x1="101" y1="98" x2="190" y2="134" stroke="white" stroke-width="0.5" opacity="0.12"/>
  <line x1="250" y1="149" x2="306" y2="153" stroke="white" stroke-width="0.5" opacity="0.12"/>
  <line x1="156" y1="167" x2="224" y2="211" stroke="white" stroke-width="0.5" opacity="0.12"/>
  <line x1="144" y1="150" x2="187" y2="121" stroke="white" stroke-width="0.5" opacity="0.12"/>
  <line x1="238" y1="234" x2="284" y2="187" stroke="white" stroke-width="0.5" opacity="0.12"/>
  <line x1="275" y1="218" x2="356" y2="235" stroke="white" stroke-width="0.5" opacity="0.12"/>
  <line x1="283" y1="208" x2="353" y2="224" stroke="white" stroke-width="0.5" opacity="0.12"/>
  <line x1="298" y1="121" x2="367" y2="74" stroke="white" stroke-width="0.5" opacity="0.12"/>
  <line x1="220" y1="298" x2="261" y2="266" stroke="white" stroke-width="0.5" opacity="0.12"/>

  <line x1="533" y1="50" x2="533" y2="350" stroke="white" stroke-width="0.5" opacity="0.12"/>

  <text x="560" y="120" font-family="'SF Pro Display','Helvetica Neue',Arial,sans-serif" font-size="56" font-weight="800" fill="white" letter-spacing="4">KNOWLEDGE GRAPH</text>
  <text x="560" y="185" font-family="'Noto Sans SC','PingFang SC','Microsoft YaHei',sans-serif" font-size="22" font-weight="500" fill="white" opacity="0.9" letter-spacing="3">知识图谱系统</text>
  <text x="560" y="225" font-family="'Noto Sans SC','PingFang SC','Microsoft YaHei',sans-serif" font-size="14" font-weight="300" fill="white" opacity="0.5" letter-spacing="1.5">文档解析 · 实体抽取 · 关系抽取 · 图谱可视化 · 自然语言问答</text>
  <text x="560" y="275" font-family="'SF Mono','Fira Code','Consolas',monospace" font-size="12" fill="white" opacity="0.4" letter-spacing="1.5">FastAPI · Neo4j · D3.js</text>
  <line x1="560" y1="315" x2="1150" y2="315" stroke="white" stroke-width="0.5" opacity="0.1"/>
  <text x="560" y="345" font-family="'SF Mono','Fira Code','Consolas',monospace" font-size="10" fill="white" opacity="0.3" letter-spacing="1">KNOWLEDGE GRAPH · NLP · NEO4J · VISUALIZATION</text>
</svg>